<svg viewBox="0 0 32 32" xmlns="http://www.w3.org/2000/svg">
<path d="M9.4 7.06667V10.1733L11.64 10.4933C14.3465 10.7723 16.9611 11.6312 19.3057 13.0118C21.6503 14.3923 23.6698 16.2619 25.2267 18.4933C21.0907 16.5687 16.5593 15.6459 12 15.8H9.33333V19.4133L3.22667 13.24L9.4 7.06667ZM10.2133 3.29334C9.98041 3.29277 9.74968 3.33844 9.53454 3.4277C9.31939 3.51696 9.12411 3.64804 8.96 3.81334L0.786667 12C0.454471 12.3325 0.267872 12.7833 0.267872 13.2533C0.267872 13.7234 0.454471 14.1742 0.786667 14.5067L8.96 22.6667C9.20894 22.9118 9.52431 23.0786 9.86706 23.1464C10.2098 23.2142 10.5649 23.18 10.8884 23.048C11.2119 22.916 11.4897 22.6921 11.6872 22.4039C11.8848 22.1158 11.9935 21.776 12 21.4267V18.4133C20.9067 18.4133 27.1333 21.2667 31.5867 27.5067C29.8133 18.6667 24.48 9.69334 12 7.90667V5.08001C12 4.60615 11.8118 4.15171 11.4767 3.81664C11.1416 3.48158 10.6872 3.29334 10.2133 3.29334V3.29334Z"/>
</svg>
