<svg viewBox="0 0 32 32" xmlns="http://www.w3.org/2000/svg">
<path d="M27.7467 24.1333L25.68 22.0667V14.0667C25.68 9.13335 23.0133 5.01335 18.44 3.92002V2.78668C18.4647 2.45557 18.4207 2.12294 18.311 1.80958C18.2012 1.49622 18.028 1.20888 17.8021 0.965541C17.5762 0.722199 17.3025 0.528086 16.9982 0.395346C16.6938 0.262605 16.3654 0.194092 16.0333 0.194092C15.7013 0.194092 15.3729 0.262605 15.0685 0.395346C14.7642 0.528086 14.4905 0.722199 14.2646 0.965541C14.0387 1.20888 13.8655 1.49622 13.7557 1.80958C13.6459 2.12294 13.602 2.45557 13.6267 2.78668V3.88002C9.01334 4.97335 6.4 9.08002 6.4 14.0267V22.0267L4.32 24.1333C4.09079 24.3564 3.93366 24.643 3.86891 24.9562C3.80416 25.2693 3.83475 25.5948 3.95673 25.8904C4.07872 26.186 4.2865 26.4383 4.55327 26.6147C4.82003 26.7911 5.13354 26.8835 5.45334 26.88H26.6667C26.9819 26.873 27.2881 26.773 27.5467 26.5926C27.8053 26.4122 28.0048 26.1594 28.1202 25.8659C28.2356 25.5724 28.2617 25.2514 28.1953 24.9432C28.1288 24.6349 27.9727 24.3532 27.7467 24.1333V24.1333ZM22.4133 23.6667H9.61334V14.0267C9.61334 10.04 12 6.80002 16 6.80002C20 6.80002 22.4267 10.04 22.4267 14.0267L22.4133 23.6667ZM15.9867 31.6667C16.8378 31.6632 17.6531 31.3235 18.255 30.7216C18.8568 30.1198 19.1965 29.3045 19.2 28.4533H12.8267C12.8214 28.8753 12.8993 29.2942 13.0559 29.6861C13.2125 30.078 13.4448 30.4352 13.7395 30.7373C14.0342 31.0394 14.3855 31.2805 14.7733 31.4468C15.1612 31.6132 15.578 31.7015 16 31.7067L15.9867 31.6667Z"/>
</svg>
