<svg viewBox="0 0 32 32" xmlns="http://www.w3.org/2000/svg">
<path d="M15.48 18.2533C15.0827 18.2534 14.7015 18.0965 14.4193 17.8168C14.1371 17.5371 13.9769 17.1573 13.9733 16.76L13.8933 7.56001C13.8898 7.36167 13.9258 7.16461 13.9993 6.98034C14.0727 6.79607 14.1822 6.62829 14.3212 6.48678C14.4602 6.34528 14.626 6.23289 14.809 6.15618C14.9919 6.07947 15.1883 6.03998 15.3867 6.04001V6.04001C15.7852 6.03995 16.1679 6.19642 16.4522 6.47574C16.7365 6.75505 16.8997 7.13485 16.9067 7.53334L16.9867 16.7333C16.9902 16.9317 16.9542 17.1287 16.8807 17.313C16.8073 17.4973 16.6978 17.6651 16.5588 17.8066C16.4198 17.9481 16.254 18.0605 16.071 18.1372C15.8881 18.2139 15.6917 18.2534 15.4933 18.2533H15.48Z"/>
<path d="M23.24 18.2533H15.52C15.1204 18.2533 14.7372 18.0946 14.4546 17.812C14.1721 17.5295 14.0133 17.1462 14.0133 16.7467C14.0133 16.3471 14.1721 15.9638 14.4546 15.6813C14.7372 15.3987 15.1204 15.24 15.52 15.24H23.24C23.6396 15.24 24.0228 15.3987 24.3054 15.6813C24.5879 15.9638 24.7467 16.3471 24.7467 16.7467C24.7467 17.1462 24.5879 17.5295 24.3054 17.812C24.0228 18.0946 23.6396 18.2533 23.24 18.2533Z"/>
<path d="M25.6667 32H6.33333C4.65363 32 3.04272 31.3327 1.85499 30.145C0.66726 28.9573 0 27.3464 0 25.6667L0 6.33333C0 4.65363 0.66726 3.04272 1.85499 1.85499C3.04272 0.66726 4.65363 0 6.33333 0L25.6667 0C27.3464 0 28.9573 0.66726 30.145 1.85499C31.3327 3.04272 32 4.65363 32 6.33333V25.6667C32 27.3464 31.3327 28.9573 30.145 30.145C28.9573 31.3327 27.3464 32 25.6667 32V32ZM6.66667 3.49333C5.82827 3.50371 5.02713 3.84137 4.43425 4.43425C3.84137 5.02713 3.50371 5.82827 3.49333 6.66667V25.3333C3.50371 26.1717 3.84137 26.9729 4.43425 27.5658C5.02713 28.1586 5.82827 28.4963 6.66667 28.5067H25.3333C26.1809 28.5032 26.9928 28.1649 27.5922 27.5655C28.1916 26.9662 28.5298 26.1543 28.5333 25.3067V6.66667C28.5228 5.82369 28.1815 5.0186 27.5829 4.42498C26.9843 3.83136 26.1764 3.49677 25.3333 3.49333H6.66667Z"/>
</svg>
