<svg viewBox="0 0 32 32" xmlns="http://www.w3.org/2000/svg">
<path d="M27.08 24L19.08 16L27.08 7.99999C27.2822 7.79776 27.4427 7.55767 27.5521 7.29344C27.6615 7.0292 27.7179 6.746 27.7179 6.45999C27.7179 6.17399 27.6615 5.89079 27.5521 5.62655C27.4427 5.36232 27.2822 5.12223 27.08 4.91999C26.8778 4.71776 26.6377 4.55734 26.3734 4.44789C26.1092 4.33844 25.826 4.2821 25.54 4.2821C24.9624 4.2821 24.4084 4.51156 24 4.91999L16 12.92L7.99999 4.91999C7.59156 4.51156 7.03761 4.2821 6.45999 4.2821C5.88238 4.2821 5.32843 4.51156 4.91999 4.91999C4.51156 5.32843 4.2821 5.88238 4.2821 6.45999C4.2821 7.03761 4.51156 7.59156 4.91999 7.99999L12.92 16L4.91999 24C4.51156 24.4084 4.2821 24.9624 4.2821 25.54C4.2821 26.1176 4.51156 26.6716 4.91999 27.08C5.32843 27.4884 5.88238 27.7179 6.45999 27.7179C7.03761 27.7179 7.59156 27.4884 7.99999 27.08L16 19.08L24 27.08C24.4084 27.4884 24.9624 27.7179 25.54 27.7179C26.1176 27.7179 26.6716 27.4884 27.08 27.08C27.4884 26.6716 27.7179 26.1176 27.7179 25.54C27.7179 24.9624 27.4884 24.4084 27.08 24V24Z"/>
</svg>
