 <svg viewBox="0 0 32 32" xmlns="http://www.w3.org/2000/svg">
<path d="M16 0.333344C12.9014 0.333344 9.87242 1.25218 7.29605 2.97365C4.71968 4.69513 2.71165 7.14193 1.52587 10.0046C0.340101 12.8673 0.0298489 16.0174 0.634351 19.0564C1.23885 22.0955 2.73096 24.887 4.92198 27.078C7.113 29.269 9.90454 30.7611 12.9436 31.3656C15.9826 31.9701 19.1327 31.6599 21.9954 30.4741C24.8581 29.2883 27.3049 27.2803 29.0263 24.7039C30.7478 22.1276 31.6667 19.0986 31.6667 16C31.6667 13.9426 31.2614 11.9054 30.4741 10.0046C29.6868 8.10387 28.5328 6.37679 27.078 4.922C25.6232 3.46722 23.8961 2.31322 21.9954 1.5259C20.0946 0.738574 18.0574 0.333344 16 0.333344V0.333344ZM17.64 28.4267C15.0441 28.7666 12.407 28.2851 10.0988 27.0497C7.79054 25.8144 5.92709 23.8873 4.77 21.5389C3.6129 19.1904 3.22025 16.5386 3.64716 13.9556C4.07408 11.3727 5.29912 8.98824 7.15033 7.13702C9.00155 5.28581 11.386 4.06077 13.969 3.63385C16.5519 3.20694 19.2037 3.59959 21.5522 4.75669C23.9006 5.91378 25.8277 7.77723 27.0631 10.0855C28.2984 12.3937 28.7799 15.0308 28.44 17.6267C28.0829 20.3681 26.8285 22.9143 24.8724 24.868C22.9163 26.8217 20.3686 28.073 17.6267 28.4267H17.64ZM21.04 14.3867C21.534 14.4825 22.0457 14.4171 22.4997 14.1999C22.9537 13.9828 23.3258 13.6254 23.5612 13.1806C23.7966 12.7358 23.8827 12.2272 23.807 11.7297C23.7312 11.2322 23.4975 10.7722 23.1404 10.4177C22.7833 10.0631 22.3216 9.83276 21.8236 9.76058C21.3256 9.68841 20.8175 9.77824 20.3745 10.0168C19.9314 10.2554 19.5767 10.6301 19.3629 11.0856C19.149 11.5412 19.0872 12.0534 19.1867 12.5467C19.2776 13.0007 19.5008 13.4177 19.8283 13.7451C20.1557 14.0725 20.5726 14.2957 21.0267 14.3867H21.04ZM10.0667 14.3867C10.5607 14.4825 11.0724 14.4171 11.5264 14.1999C11.9803 13.9828 12.3525 13.6254 12.5879 13.1806C12.8232 12.7358 12.9094 12.2272 12.8336 11.7297C12.7579 11.2322 12.5242 10.7722 12.1671 10.4177C11.8099 10.0631 11.3483 9.83276 10.8503 9.76058C10.3523 9.68841 9.84421 9.77824 9.40114 10.0168C8.95806 10.2554 8.60342 10.6301 8.38954 11.0856C8.17566 11.5412 8.11388 12.0534 8.21332 12.5467C8.30427 13.0007 8.52751 13.4177 8.85493 13.7451C9.18234 14.0725 9.5993 14.2957 10.0533 14.3867H10.0667ZM16 24.6133C17.2754 24.6187 18.536 24.3389 19.6894 23.7944C20.8429 23.25 21.8601 22.4547 22.6667 21.4667C22.8374 21.2593 22.9461 21.0079 22.9803 20.7415C23.0145 20.475 22.9728 20.2044 22.86 19.9606C22.7471 19.7168 22.5678 19.5098 22.3425 19.3635C22.1173 19.2171 21.8552 19.1374 21.5867 19.1333H10.44C10.1691 19.1324 9.90358 19.2085 9.67439 19.3529C9.44521 19.4973 9.26187 19.7039 9.14579 19.9486C9.02972 20.1934 8.98571 20.4661 9.01892 20.7349C9.05213 21.0037 9.16118 21.2575 9.33332 21.4667C10.1399 22.4547 11.1571 23.25 12.3106 23.7944C13.464 24.3389 14.7245 24.6187 16 24.6133V24.6133Z"/>
</svg>
