<svg viewBox="0 0 32 32" xmlns="http://www.w3.org/2000/svg">
<path d="M7.32001 13.3333C7.23148 12.8927 7.28712 12.4353 7.4787 12.0287C7.67027 11.6221 7.98761 11.288 8.38377 11.0758C8.77994 10.8635 9.23389 10.7844 9.6785 10.8502C10.1231 10.9159 10.5347 11.123 10.8525 11.4408C11.1703 11.7586 11.3774 12.1702 11.4432 12.6148C11.5089 13.0594 11.4298 13.5134 11.2175 13.9096C11.0053 14.3057 10.6712 14.6231 10.2646 14.8146C9.85807 15.0062 9.40064 15.0618 8.96001 14.9733C8.55544 14.892 8.18391 14.693 7.89212 14.4012C7.60033 14.1094 7.40129 13.7379 7.32001 13.3333V13.3333ZM14.2267 24C15.3266 23.9999 16.4134 23.7615 17.4124 23.3011C18.4113 22.8408 19.2987 22.1694 20.0133 21.3333C20.179 21.1396 20.2857 20.9025 20.3208 20.65C20.3558 20.3976 20.3178 20.1403 20.2111 19.9088C20.1045 19.6773 19.9337 19.4812 19.7191 19.3438C19.5044 19.2063 19.2549 19.1333 19 19.1333H9.46668C9.21179 19.1333 8.96224 19.2063 8.74759 19.3438C8.53294 19.4812 8.36218 19.6773 8.25555 19.9088C8.14891 20.1403 8.11087 20.3976 8.14593 20.65C8.18098 20.9025 8.28767 21.1396 8.45334 21.3333C9.15529 22.1875 10.0361 22.8774 11.0336 23.3543C12.0311 23.8312 13.1211 24.0834 14.2267 24.0933V24ZM18.6667 15.0267C19.0034 15.0953 19.352 15.0793 19.6811 14.9803C20.0102 14.8813 20.3096 14.7023 20.5527 14.4593C20.7957 14.2163 20.9747 13.9168 21.0737 13.5877C21.1727 13.2586 21.1886 12.9101 21.12 12.5733C21.043 12.1691 20.847 11.797 20.5572 11.5048C20.2674 11.2127 19.897 11.0137 19.4933 10.9333C19.1623 10.8708 18.821 10.8892 18.4986 10.9868C18.1762 11.0844 17.882 11.2583 17.6412 11.4939C17.4004 11.7295 17.22 12.0198 17.1153 12.34C17.0106 12.6602 16.9848 13.001 17.04 13.3333C17.1141 13.7444 17.3081 14.1245 17.5975 14.4258C17.8869 14.727 18.2589 14.9361 18.6667 15.0267ZM26.6667 0.359985C26.3131 0.359985 25.9739 0.500461 25.7239 0.75051C25.4738 1.00056 25.3333 1.3397 25.3333 1.69332V3.99999H23.1867C22.8331 3.99999 22.4939 4.14046 22.2439 4.39051C21.9938 4.64056 21.8533 4.9797 21.8533 5.33332V5.33332C21.8533 5.68694 21.9938 6.02608 22.2439 6.27613C22.4939 6.52618 22.8331 6.66665 23.1867 6.66665H25.3333V8.87999C25.3333 9.23361 25.4738 9.57275 25.7239 9.82279C25.9739 10.0728 26.3131 10.2133 26.6667 10.2133C27.0203 10.2133 27.3594 10.0728 27.6095 9.82279C27.8595 9.57275 28 9.23361 28 8.87999V6.66665H30.16C30.5136 6.66665 30.8528 6.52618 31.1028 6.27613C31.3529 6.02608 31.4933 5.68694 31.4933 5.33332C31.4933 4.9797 31.3529 4.64056 31.1028 4.39051C30.8528 4.14046 30.5136 3.99999 30.16 3.99999H28.12V1.78665C28.1275 1.60254 28.0968 1.41887 28.0298 1.24722C27.9628 1.07558 27.8609 0.919693 27.7306 0.789398C27.6003 0.659102 27.4444 0.557228 27.2728 0.490204C27.1011 0.42318 26.9175 0.392461 26.7333 0.399985L26.6667 0.359985ZM25.3333 16.36C25.3364 18.7225 24.5878 21.0248 23.1958 22.9337C21.8038 24.8427 19.8407 26.2593 17.5904 26.9788C15.3401 27.6982 12.9192 27.6832 10.678 26.9358C8.43679 26.1884 6.49144 24.7474 5.12334 22.8213C3.75524 20.8952 3.03533 18.5838 3.06773 16.2215C3.10014 13.8592 3.88319 11.5684 5.30361 9.68056C6.72403 7.7927 8.70817 6.40564 10.969 5.72001C13.2299 5.03439 15.6503 5.08574 17.88 5.86665C18.0929 5.96646 18.3284 6.00819 18.5626 5.98763C18.7968 5.96706 19.0215 5.88492 19.2137 5.74954C19.4059 5.61417 19.5589 5.43036 19.6572 5.21677C19.7555 5.00317 19.7956 4.76739 19.7733 4.53332C19.7752 4.2399 19.6848 3.95333 19.5149 3.71408C19.345 3.47482 19.1043 3.29499 18.8267 3.19999C16.0432 2.23283 13.0243 2.17573 10.2062 3.03695C7.38813 3.89816 4.91686 5.63309 3.14953 7.991C1.38219 10.3489 0.410332 13.2077 0.374386 16.1542C0.338441 19.1007 1.24027 21.9823 2.94956 24.3827C4.65884 26.783 7.08705 28.5777 9.88327 29.5074C12.6795 30.4371 15.6989 30.4537 18.5052 29.5547C21.3114 28.6557 23.7592 26.8878 25.4947 24.5064C27.2302 22.1249 28.1636 19.2534 28.16 16.3067C28.1401 15.3044 28.0105 14.3073 27.7733 13.3333C27.7029 13.0295 27.5339 12.7575 27.2927 12.5598C27.0516 12.362 26.7517 12.2496 26.44 12.24V12.24C26.2286 12.2315 26.0181 12.2734 25.8261 12.3623C25.6341 12.4513 25.4659 12.5846 25.3357 12.7514C25.2054 12.9181 25.1167 13.1135 25.0768 13.3214C25.037 13.5292 25.0472 13.7435 25.1067 13.9467C25.2799 14.7705 25.356 15.6118 25.3333 16.4533V16.36Z"/>
</svg>
