<svg viewBox="0 0 32 32" xmlns="http://www.w3.org/2000/svg">
<path d="M25.24 24.44C25.0391 23.8091 24.6427 23.2585 24.1082 22.8678C23.5737 22.4771 22.9288 22.2666 22.2667 22.2667H20.7067V17.5733C20.7067 17.1561 20.5409 16.7559 20.2458 16.4608C19.9508 16.1658 19.5506 16 19.1333 16H9.8V12.8667H12.8667C13.0727 12.8667 13.2766 12.8259 13.4668 12.7466C13.6569 12.6674 13.8295 12.5513 13.9745 12.405C14.1195 12.2588 14.2342 12.0852 14.3118 11.8944C14.3894 11.7036 14.4284 11.4993 14.4267 11.2933V8.15999H17.56C17.9715 8.16175 18.3793 8.08244 18.7601 7.92659C19.1409 7.77075 19.4873 7.54142 19.7795 7.2517C20.0717 6.96198 20.304 6.61754 20.4631 6.23806C20.6221 5.85857 20.7049 5.45147 20.7067 5.03999V4.38666C22.5712 5.14597 24.2248 6.34415 25.5271 7.87939C26.8294 9.41463 27.7418 11.2416 28.1868 13.2049C28.6319 15.1683 28.5963 17.2101 28.0833 19.1568C27.5703 21.1035 26.5949 22.8976 25.24 24.3867V24.44ZM14.4267 28.3867C11.4062 28.0074 8.62741 26.5406 6.61014 24.2607C4.59288 21.9809 3.47537 19.0442 3.46667 16C3.46735 15.0568 3.57924 14.117 3.8 13.2L11.3067 20.7067V22.2667C11.3067 23.0954 11.6349 23.8903 12.2197 24.4776C12.8044 25.0648 13.598 25.3965 14.4267 25.4V28.3867ZM16 0.333328C12.9014 0.333328 9.87244 1.25216 7.29607 2.97364C4.7197 4.69511 2.71166 7.14191 1.52589 10.0046C0.340116 12.8673 0.0298641 16.0174 0.634366 19.0564C1.23887 22.0954 2.73097 24.887 4.922 27.078C7.11302 29.269 9.90455 30.7611 12.9436 31.3656C15.9826 31.9701 19.1327 31.6599 21.9954 30.4741C24.8581 29.2883 27.3049 27.2803 29.0264 24.7039C30.7478 22.1276 31.6667 19.0986 31.6667 16C31.6667 13.9426 31.2614 11.9054 30.4741 10.0046C29.6868 8.10385 28.5328 6.37677 27.078 4.92199C25.6232 3.4672 23.8961 2.31321 21.9954 1.52588C20.0946 0.738559 18.0574 0.333328 16 0.333328V0.333328Z"/>
</svg>
