<svg viewBox="0 0 32 32" xmlns="http://www.w3.org/2000/svg">
<path d="M31.6667 10.12C31.6632 9.60126 31.4555 9.10476 31.0887 8.73794C30.7219 8.37112 30.2254 8.1635 29.7067 8.16001H23.84V2.29334C23.8365 1.7746 23.6289 1.27809 23.2621 0.911275C22.8952 0.544458 22.3987 0.336837 21.88 0.333344C21.3602 0.333344 20.8616 0.539843 20.4941 0.907414C20.1265 1.27499 19.92 1.77352 19.92 2.29334V8.16001H12.08V2.29334C12.08 2.03595 12.0293 1.78108 11.9308 1.54328C11.8323 1.30549 11.6879 1.08942 11.5059 0.907414C11.3239 0.725411 11.1079 0.581039 10.8701 0.48254C10.6323 0.38404 10.3774 0.333344 10.12 0.333344C9.60125 0.336837 9.10474 0.544458 8.73793 0.911275C8.37111 1.27809 8.16349 1.7746 8.15999 2.29334V8.16001H2.29333C1.77458 8.1635 1.27808 8.37112 0.911259 8.73794C0.544443 9.10476 0.336822 9.60126 0.333328 10.12V10.12C0.333328 10.3774 0.384025 10.6323 0.482524 10.8701C0.581024 11.1079 0.725396 11.3239 0.907399 11.5059C1.0894 11.6879 1.30547 11.8323 1.54327 11.9308C1.78107 12.0293 2.03594 12.08 2.29333 12.08H8.15999V19.92H2.29333C1.7735 19.92 1.27497 20.1265 0.907399 20.4941C0.539828 20.8617 0.333328 21.3602 0.333328 21.88V21.88C0.336822 22.3988 0.544443 22.8953 0.911259 23.2621C1.27808 23.6289 1.77458 23.8365 2.29333 23.84H8.15999V29.7067C8.16349 30.2254 8.37111 30.7219 8.73793 31.0887C9.10474 31.4556 9.60125 31.6632 10.12 31.6667V31.6667C10.3774 31.6667 10.6323 31.616 10.8701 31.5175C11.1079 31.419 11.3239 31.2746 11.5059 31.0926C11.6879 30.9106 11.8323 30.6945 11.9308 30.4567C12.0293 30.2189 12.08 29.9641 12.08 29.7067V23.84H19.92V29.7067C19.92 30.2265 20.1265 30.725 20.4941 31.0926C20.8616 31.4602 21.3602 31.6667 21.88 31.6667V31.6667C22.3987 31.6632 22.8952 31.4556 23.2621 31.0887C23.6289 30.7219 23.8365 30.2254 23.84 29.7067V23.84H29.7067C30.2254 23.8365 30.7219 23.6289 31.0887 23.2621C31.4555 22.8953 31.6632 22.3988 31.6667 21.88V21.88C31.6667 21.3602 31.4602 20.8617 31.0926 20.4941C30.725 20.1265 30.2265 19.92 29.7067 19.92H23.84V12.08H29.7067C29.9641 12.08 30.2189 12.0293 30.4567 11.9308C30.6945 11.8323 30.9106 11.6879 31.0926 11.5059C31.2746 11.3239 31.419 11.1079 31.5175 10.8701C31.616 10.6323 31.6667 10.3774 31.6667 10.12ZM19.92 19.92H12.08V12.08H19.92V19.92Z"/>
</svg>
