<svg viewBox="0 0 32 32" xmlns="http://www.w3.org/2000/svg">
<path d="M27.8267 6.86666L18.92 1.18666C18.0473 0.631454 17.0344 0.336563 16 0.336563C14.9656 0.336563 13.9527 0.631454 13.08 1.18666L4.17334 6.86666C3.40334 7.35528 2.76963 8.03095 2.33131 8.83066C1.89298 9.63036 1.66433 10.528 1.66667 11.44V26.24C1.67019 27.6782 2.24306 29.0564 3.26 30.0733C4.27693 31.0903 5.65518 31.6631 7.09334 31.6667H24.9067C26.3448 31.6631 27.7231 31.0903 28.74 30.0733C29.757 29.0564 30.3298 27.6782 30.3333 26.24V11.44C30.3357 10.528 30.107 9.63036 29.6687 8.83066C29.2304 8.03095 28.5967 7.35528 27.8267 6.86666V6.86666ZM14.4933 3.49333C14.9258 3.22527 15.4245 3.08325 15.9333 3.08325C16.4422 3.08325 16.9409 3.22527 17.3733 3.49333L26.28 9.17333L26.3867 9.25333H5.54667L5.65334 9.18666L14.4933 3.49333ZM20 28.92H12V22.5867C12 22.1611 12.1681 21.7527 12.4678 21.4506C12.7675 21.1484 13.1744 20.9768 13.6 20.9733H18.36C18.5741 20.9698 18.7868 21.0089 18.9856 21.0884C19.1844 21.1679 19.3654 21.2862 19.5181 21.4363C19.6707 21.5865 19.792 21.7655 19.8747 21.963C19.9574 22.1605 20 22.3725 20 22.5867V28.92ZM24.92 28.92H22.7333V22.5867C22.7333 21.4326 22.2758 20.3257 21.461 19.5084C20.6463 18.6911 19.5407 18.2302 18.3867 18.2267H13.6267C12.483 18.2476 11.3931 18.7157 10.5905 19.5308C9.78794 20.3458 9.33664 21.4428 9.33334 22.5867V28.92H7.09334C6.3861 28.92 5.70782 28.639 5.20772 28.1389C4.70763 27.6388 4.42667 26.9606 4.42667 26.2533V12H27.5867V26.24C27.5884 26.5924 27.5203 26.9417 27.3863 27.2677C27.2522 27.5936 27.0549 27.8898 26.8057 28.139C26.5564 28.3882 26.2603 28.5855 25.9344 28.7196C25.6084 28.8536 25.2591 28.9218 24.9067 28.92H24.92Z"/>
</svg>
