<svg viewBox="0 0 32 32" xmlns="http://www.w3.org/2000/svg">
<path d="M16 31.6667C12.9014 31.6667 9.87244 30.7478 7.29607 29.0263C4.7197 27.3049 2.71166 24.8581 1.52589 21.9954C0.340116 19.1327 0.0298641 15.9826 0.634366 12.9436C1.23887 9.90454 2.73097 7.113 4.922 4.92198C7.11302 2.73096 9.90455 1.23885 12.9436 0.634351C15.9826 0.0298489 19.1327 0.340101 21.9954 1.52587C24.8581 2.71165 27.3049 4.71968 29.0264 7.29605C30.7478 9.87242 31.6667 12.9014 31.6667 16C31.6631 20.154 30.0114 24.1368 27.0741 27.0741C24.1368 30.0114 20.154 31.6631 16 31.6667V31.6667ZM16 3.23999C13.4763 3.23999 11.0093 3.98835 8.91093 5.39043C6.81255 6.79252 5.17707 8.78536 4.2113 11.1169C3.24552 13.4485 2.99283 16.0141 3.48518 18.4893C3.97753 20.9645 5.1928 23.2382 6.97732 25.0227C8.76184 26.8072 11.0355 28.0225 13.5106 28.5148C15.9858 29.0072 18.5515 28.7545 20.883 27.7887C23.2146 26.8229 25.2075 25.1874 26.6096 23.0891C28.0116 20.9907 28.76 18.5237 28.76 16C28.7565 12.6169 27.411 9.3734 25.0188 6.9812C22.6266 4.589 19.3831 3.24352 16 3.23999V3.23999Z"/>
<path d="M17.7467 9.93334C17.7467 9.70397 17.7015 9.47684 17.6137 9.26492C17.5259 9.05301 17.3973 8.86046 17.2351 8.69826C17.0729 8.53607 16.8803 8.40741 16.6684 8.31963C16.4565 8.23186 16.2294 8.18668 16 8.18668V8.18668C15.5367 8.18668 15.0925 8.3707 14.7649 8.69826C14.4374 9.02583 14.2533 9.4701 14.2533 9.93334V9.93334C14.2568 10.3943 14.4424 10.8351 14.7696 11.1598C15.0968 11.4845 15.5391 11.6667 16 11.6667V11.6667C16.4609 11.6667 16.9032 11.4845 17.2304 11.1598C17.5576 10.8351 17.7431 10.3943 17.7467 9.93334V9.93334ZM17.7467 21.68V15.5867C17.7467 15.1234 17.5626 14.6792 17.2351 14.3516C16.9075 14.024 16.4632 13.84 16 13.84V13.84C15.5367 13.84 15.0925 14.024 14.7649 14.3516C14.4374 14.6792 14.2533 15.1234 14.2533 15.5867V21.68C14.2568 22.1409 14.4424 22.5818 14.7696 22.9065C15.0968 23.2312 15.5391 23.4134 16 23.4133V23.4133C16.4609 23.4134 16.9032 23.2312 17.2304 22.9065C17.5576 22.5818 17.7431 22.1409 17.7467 21.68Z"/>
</svg>
