<svg viewBox="0 0 32 32" xmlns="http://www.w3.org/2000/svg">
<path d="M12.7067 28.3733C12.7093 29.0241 12.9047 29.6595 13.2682 30.1994C13.6316 30.7392 14.1469 31.1592 14.7489 31.4065C15.3509 31.6537 16.0127 31.717 16.6506 31.5884C17.2886 31.4599 17.8742 31.1451 18.3334 30.684C18.7927 30.2229 19.105 29.6361 19.231 28.9976C19.357 28.3591 19.291 27.6976 19.0413 27.0966C18.7917 26.4956 18.3696 25.9821 17.8283 25.6208C17.287 25.2595 16.6508 25.0667 16 25.0667C15.1253 25.0702 14.2877 25.4201 13.6704 26.0399C13.0532 26.6596 12.7067 27.4987 12.7067 28.3733V28.3733ZM12.7067 3.62668C12.7067 4.27804 12.8998 4.91477 13.2617 5.45635C13.6236 5.99794 14.1379 6.42005 14.7397 6.66932C15.3415 6.91858 16.0037 6.9838 16.6425 6.85673C17.2813 6.72966 17.8682 6.416 18.3287 5.95541C18.7893 5.49483 19.103 4.90802 19.2301 4.26917C19.3571 3.63033 19.2919 2.96815 19.0426 2.36637C18.7934 1.76459 18.3713 1.25025 17.8297 0.88837C17.2881 0.526494 16.6514 0.333344 16 0.333344C15.1276 0.336854 14.292 0.684956 13.6751 1.30182C13.0583 1.91868 12.7102 2.75431 12.7067 3.62668V3.62668ZM12.7067 16C12.7067 16.6514 12.8998 17.2881 13.2617 17.8297C13.6236 18.3713 14.1379 18.7934 14.7397 19.0427C15.3415 19.2919 16.0037 19.3571 16.6425 19.2301C17.2813 19.103 17.8682 18.7893 18.3287 18.3287C18.7893 17.8682 19.103 17.2814 19.2301 16.6425C19.3571 16.0037 19.2919 15.3415 19.0426 14.7397C18.7934 14.1379 18.3713 13.6236 17.8297 13.2617C17.2881 12.8998 16.6514 12.7067 16 12.7067C15.1276 12.7102 14.292 13.0583 13.6751 13.6751C13.0583 14.292 12.7102 15.1276 12.7067 16Z"/>
</svg>
