<svg viewBox="0 0 32 32" xmlns="http://www.w3.org/2000/svg">
<path d="M31.0933 28.2933L22.4533 19.64C24.242 17.1449 25.0266 14.0683 24.6513 11.0214C24.2759 7.97448 22.7681 5.18026 20.4273 3.1939C18.0866 1.20755 15.0843 0.174443 12.0169 0.299839C8.94951 0.425236 6.04154 1.69996 3.87076 3.87074C1.69997 6.04153 0.425251 8.9495 0.299855 12.0169C0.174459 15.0843 1.20757 18.0866 3.19392 20.4273C5.18027 22.7681 7.97449 24.2759 11.0214 24.6512C14.0683 25.0266 17.145 24.242 19.64 22.4533L28.2933 31.0933C28.6646 31.4646 29.1682 31.6732 29.6933 31.6732C30.2184 31.6732 30.722 31.4646 31.0933 31.0933C31.4646 30.722 31.6732 30.2184 31.6732 29.6933C31.6732 29.1682 31.4646 28.6646 31.0933 28.2933V28.2933ZM3.50667 11.36C3.72526 9.67331 4.41182 8.08155 5.48857 6.76501C6.56533 5.44848 7.98925 4.45979 9.59904 3.91093C11.2088 3.36208 12.9402 3.275 14.5969 3.65956C16.2536 4.04412 17.7696 4.88494 18.973 6.08679C20.1764 7.28864 21.0192 8.80349 21.4059 10.4597C21.7927 12.116 21.7079 13.8474 21.1611 15.4579C20.6144 17.0684 19.6275 18.4936 18.3124 19.5721C16.9973 20.6506 15.4064 21.3392 13.72 21.56C12.3371 21.7411 10.931 21.602 9.6103 21.1537C8.28959 20.7053 7.08952 19.9596 6.10264 18.974C5.11576 17.9884 4.36846 16.7893 3.91836 15.4692C3.46827 14.149 3.32742 12.7432 3.50667 11.36V11.36Z"/>
</svg>
