<svg viewBox="0 0 32 32" xmlns="http://www.w3.org/2000/svg">
<path d="M28.0667 12.44C28.8694 11.6603 29.4209 10.6584 29.6501 9.56307C29.8793 8.4677 29.7759 7.32881 29.3531 6.29264C28.9303 5.25648 28.2075 4.37033 27.2774 3.74799C26.3473 3.12564 25.2524 2.79551 24.1333 2.79999C23.2722 2.79943 22.4229 3.00034 21.6533 3.38665C21.0259 2.46544 20.1829 1.7115 19.1976 1.19046C18.2123 0.669408 17.1146 0.397034 16 0.397034C14.8854 0.397034 13.7877 0.669408 12.8024 1.19046C11.8171 1.7115 10.9741 2.46544 10.3467 3.38665C9.57707 3.00034 8.72778 2.79943 7.86667 2.79999C6.75325 2.80873 5.66759 3.14841 4.74774 3.77582C3.82789 4.40323 3.11541 5.29002 2.7009 6.32344C2.28639 7.35685 2.18858 8.4902 2.41991 9.57935C2.65123 10.6685 3.20124 11.6643 4 12.44C3.02139 12.4678 2.0922 12.8761 1.40997 13.5783C0.727737 14.2804 0.346271 15.221 0.346665 16.2V24.9733C0.346665 25.9705 0.742806 26.9269 1.44794 27.632C2.15308 28.3372 3.10945 28.7333 4.10666 28.7333H7.32C7.5949 29.6035 8.13991 30.3634 8.87595 30.9029C9.612 31.4423 10.5008 31.7332 11.4133 31.7333H20.5867C21.4992 31.7332 22.388 31.4423 23.124 30.9029C23.8601 30.3634 24.4051 29.6035 24.68 28.7333H27.8933C28.8905 28.7333 29.8469 28.3372 30.5521 27.632C31.2572 26.9269 31.6533 25.9705 31.6533 24.9733V16.2C31.6544 15.2321 31.2821 14.3011 30.614 13.6007C29.946 12.9004 29.0335 12.4846 28.0667 12.44V12.44ZM24.1333 5.41332C24.6291 5.41198 25.1175 5.53296 25.5553 5.76555C25.993 5.99814 26.3667 6.33514 26.6431 6.74668C26.9194 7.15823 27.09 7.6316 27.1397 8.12485C27.1893 8.61809 27.1165 9.11596 26.9277 9.57433C26.7389 10.0327 26.4399 10.4374 26.0573 10.7526C25.6746 11.0678 25.2201 11.2837 24.7341 11.3811C24.248 11.4786 23.7454 11.4547 23.2708 11.3114C22.7962 11.1682 22.3643 10.9101 22.0133 10.56C22.7981 9.09925 23.0301 7.40456 22.6667 5.78665C23.1169 5.54216 23.621 5.41384 24.1333 5.41332V5.41332ZM16 2.99999C16.8439 2.99999 17.6688 3.25022 18.3704 3.71905C19.0721 4.18788 19.6189 4.85424 19.9419 5.63387C20.2648 6.4135 20.3493 7.27139 20.1847 8.09904C20.0201 8.92669 19.6137 9.68694 19.017 10.2836C18.4203 10.8803 17.66 11.2867 16.8324 11.4513C16.0047 11.616 15.1468 11.5315 14.3672 11.2085C13.5876 10.8856 12.9212 10.3387 12.4524 9.63709C11.9836 8.93544 11.7333 8.11052 11.7333 7.26665C11.7368 6.13614 12.1875 5.05294 12.9869 4.25355C13.7863 3.45416 14.8695 3.0035 16 2.99999V2.99999ZM7.86667 5.41332C8.379 5.41384 8.8831 5.54216 9.33333 5.78665C8.97802 7.40775 9.21946 9.10261 10.0133 10.56C9.66316 10.9093 9.23239 11.167 8.75904 11.3105C8.28569 11.4539 7.78432 11.4786 7.29916 11.3824C6.814 11.2862 6.35998 11.0721 5.97717 10.7589C5.59435 10.4457 5.29452 10.0431 5.10412 9.58659C4.91372 9.13011 4.83861 8.63377 4.88542 8.14139C4.93224 7.64901 5.09953 7.17572 5.37254 6.76329C5.64555 6.35087 6.01589 6.01198 6.45086 5.77655C6.88583 5.54111 7.37207 5.41637 7.86667 5.41332V5.41332ZM2.96 24.9733V16.2C2.95821 16.0489 2.98665 15.899 3.04364 15.7591C3.10063 15.6191 3.18503 15.492 3.29186 15.3852C3.3987 15.2783 3.52582 15.194 3.66575 15.137C3.80568 15.08 3.95559 15.0515 4.10666 15.0533H7.46666C7.2357 15.5879 7.11768 16.1644 7.12 16.7467V26.08H4.10666C3.80835 26.0836 3.52065 25.9694 3.30598 25.7622C3.09131 25.555 2.967 25.2716 2.96 24.9733V24.9733ZM22.28 27.4533C22.28 27.9024 22.1016 28.3331 21.784 28.6507C21.4665 28.9682 21.0358 29.1467 20.5867 29.1467H11.4133C10.9642 29.1467 10.5335 28.9682 10.216 28.6507C9.8984 28.3331 9.72 27.9024 9.72 27.4533V16.7867C9.72 16.3376 9.8984 15.9068 10.216 15.5893C10.5335 15.2717 10.9642 15.0933 11.4133 15.0933H20.5867C21.0358 15.0933 21.4665 15.2717 21.784 15.5893C22.1016 15.9068 22.28 16.3376 22.28 16.7867V27.4533ZM29.04 24.9733C29.04 25.1233 29.0103 25.2718 28.9525 25.4101C28.8947 25.5485 28.81 25.674 28.7034 25.7795C28.5967 25.8849 28.4702 25.9681 28.3311 26.0242C28.1921 26.0804 28.0433 26.1084 27.8933 26.1067H24.88V16.7733C24.8823 16.191 24.7643 15.6145 24.5333 15.08H27.8933C28.0444 15.0782 28.1943 15.1066 28.3342 15.1636C28.4742 15.2206 28.6013 15.305 28.7081 15.4119C28.815 15.5187 28.8994 15.6458 28.9564 15.7857C29.0133 15.9257 29.0418 16.0756 29.04 16.2267V24.9733Z"/>
</svg>
