<svg viewBox="0 0 32 32" xmlns="http://www.w3.org/2000/svg">
<path d="M25.7467 15.2267C25.3529 15.2293 24.9732 15.3735 24.6769 15.633C24.3807 15.8925 24.1878 16.25 24.1333 16.64C23.8027 18.5575 22.8053 20.2965 21.3171 21.5501C19.829 22.8036 17.9458 23.4911 16 23.4911C14.0542 23.4911 12.171 22.8036 10.6829 21.5501C9.19469 20.2965 8.19726 18.5575 7.86667 16.64C7.78065 16.2288 7.54133 15.8658 7.19733 15.6247C6.85332 15.3835 6.43042 15.2824 6.01454 15.3418C5.59867 15.4012 5.221 15.6167 4.95827 15.9445C4.69554 16.2723 4.56744 16.6878 4.6 17.1067C4.99728 19.5294 6.1564 21.7624 7.90908 23.4815C9.66176 25.2006 11.9168 26.3163 14.3467 26.6667V30.1067C14.3467 30.5452 14.5209 30.9657 14.8309 31.2758C15.141 31.5858 15.5615 31.76 16 31.76C16.4385 31.76 16.859 31.5858 17.1691 31.2758C17.4791 30.9657 17.6533 30.5452 17.6533 30.1067V26.6667C20.0795 26.3178 22.3317 25.206 24.0839 23.4921C25.8362 21.7782 26.9976 19.5512 27.4 17.1333C27.4368 16.896 27.4215 16.6535 27.3551 16.4226C27.2886 16.1918 27.1727 15.9782 27.0153 15.7967C26.858 15.6153 26.663 15.4703 26.4439 15.3718C26.2248 15.2734 25.9868 15.2238 25.7467 15.2267V15.2267Z"/>
<path d="M16 20.1733C16.6501 20.1751 17.2941 20.0483 17.8951 19.8004C18.496 19.5524 19.0421 19.1881 19.5017 18.7284C19.9614 18.2687 20.3257 17.7227 20.5737 17.1217C20.8217 16.5208 20.9484 15.8768 20.9467 15.2267V5.33332C20.9467 4.02139 20.4255 2.76318 19.4978 1.8355C18.5701 0.907823 17.3119 0.386658 16 0.386658C14.6881 0.386658 13.4299 0.907823 12.5022 1.8355C11.5745 2.76318 11.0533 4.02139 11.0533 5.33332V15.2267C11.0516 15.8768 11.1783 16.5208 11.4263 17.1217C11.6743 17.7227 12.0386 18.2687 12.4983 18.7284C12.9579 19.1881 13.504 19.5524 14.1049 19.8004C14.7059 20.0483 15.3499 20.1751 16 20.1733V20.1733ZM13.8133 5.33332C13.8133 4.75338 14.0437 4.1972 14.4538 3.78712C14.8639 3.37704 15.4201 3.14666 16 3.14666C16.5799 3.14666 17.1361 3.37704 17.5462 3.78712C17.9563 4.1972 18.1867 4.75338 18.1867 5.33332V15.2267C18.1867 15.8066 17.9563 16.3628 17.5462 16.7729C17.1361 17.1829 16.5799 17.4133 16 17.4133C15.4201 17.4133 14.8639 17.1829 14.4538 16.7729C14.0437 16.3628 13.8133 15.8066 13.8133 15.2267V5.33332Z"/>
</svg>
