<svg viewBox="0 0 32 32" xmlns="http://www.w3.org/2000/svg">
<path d="M26.1067 28.44H5.89333C5.2745 28.44 4.681 28.1942 4.24342 27.7566C3.80583 27.319 3.56 26.7255 3.56 26.1067V5.89333C3.56 5.2745 3.80583 4.681 4.24342 4.24342C4.681 3.80583 5.2745 3.56 5.89333 3.56H17.7733C18.2472 3.56 18.7016 3.37176 19.0367 3.0367C19.3718 2.70163 19.56 2.24719 19.56 1.77333C19.5565 1.30179 19.3667 0.850766 19.032 0.51858C18.6973 0.186393 18.2449 -1.31303e-05 17.7733 6.93688e-10H5.84C4.29222 0.0035217 2.80884 0.619936 1.71439 1.71439C0.619936 2.80884 0.0035217 4.29222 0 5.84L0 26.16C0.00350444 27.7055 0.618086 29.1869 1.70966 30.2809C2.80123 31.375 4.2812 31.993 5.82667 32H26.1733C27.7165 31.993 29.1945 31.3769 30.2857 30.2857C31.3769 29.1945 31.993 27.7165 32 26.1733V14.1733C32 13.7018 31.8136 13.2493 31.4814 12.9147C31.1492 12.58 30.6982 12.3902 30.2267 12.3867V12.3867C29.7528 12.3867 29.2984 12.5749 28.9633 12.91C28.6282 13.245 28.44 13.6995 28.44 14.1733V26.0533C28.4471 26.3642 28.392 26.6734 28.2779 26.9626C28.1639 27.2519 27.9931 27.5155 27.7757 27.7378C27.5583 27.9602 27.2987 28.1368 27.0121 28.2574C26.7255 28.378 26.4176 28.4401 26.1067 28.44Z"/>
<path d="M9.04 22.4933C9.03815 22.5551 9.04896 22.6166 9.07176 22.6741C9.09456 22.7315 9.12887 22.7837 9.17257 22.8274C9.21628 22.8711 9.26846 22.9054 9.32592 22.9282C9.38337 22.951 9.44488 22.9618 9.50666 22.96H11.2133C12.2092 22.9248 13.1577 22.5264 13.88 21.84L28 8.10666L24.4267 4.53333L10.36 18.12C9.59631 18.8399 9.14617 19.8312 9.10666 20.88L9.04 22.4933ZM30.7733 5.33333C30.943 5.15283 31.0375 4.91441 31.0375 4.66667C31.0375 4.41892 30.943 4.18051 30.7733 4L28.5333 1.76C28.356 1.58413 28.1164 1.48544 27.8667 1.48544C27.6169 1.48544 27.3773 1.58413 27.2 1.76L25.44 3.50667L29.0267 7.08L30.7733 5.33333Z"/>
</svg>
