<svg viewBox="0 0 32 32" xmlns="http://www.w3.org/2000/svg">
<path d="M24.8 9.33333C24.524 8.78404 24.1395 8.29642 23.6697 7.89995C23.1999 7.50348 22.6545 7.2064 22.0667 7.02667C21.4582 6.81323 20.7952 6.81323 20.1867 7.02667C18.3721 8.2222 17.0472 10.0297 16.4533 12.12V12.12C16.4547 12.6133 16.5845 13.0977 16.83 13.5255C17.0755 13.9534 17.4282 14.3099 17.8533 14.56C18.1457 14.7543 18.5028 14.8254 18.8473 14.758C19.1918 14.6906 19.4958 14.4901 19.6933 14.2C19.891 13.9118 19.9676 13.5575 19.9067 13.2133C19.8373 12.8708 19.6362 12.5691 19.3467 12.3733C19.2665 12.3218 19.1907 12.2639 19.12 12.2C19.6443 11.184 20.3595 10.2785 21.2267 9.53333C21.4762 9.59464 21.7104 9.70681 21.9146 9.86283C22.1188 10.0188 22.2886 10.2153 22.4133 10.44C22.56 10.8781 22.5314 11.3559 22.3333 11.7733C21.3847 14.1685 19.9656 16.3492 18.16 18.1867C16.3202 19.9895 14.1401 21.4081 11.7467 22.36C11.5399 22.4587 11.3155 22.5154 11.0867 22.5268C10.8578 22.5383 10.6289 22.5042 10.4133 22.4267C10.1806 22.2923 9.9778 22.1118 9.81731 21.8963C9.65682 21.6808 9.54203 21.4348 9.47999 21.1733C10.2522 20.353 11.1529 19.664 12.1467 19.1333C12.2069 19.2038 12.2605 19.2796 12.3067 19.36C12.4051 19.5048 12.5312 19.6288 12.6776 19.7249C12.824 19.821 12.9879 19.8873 13.16 19.92C13.5041 19.9809 13.8584 19.9043 14.1467 19.7067C14.4362 19.5109 14.6373 19.2092 14.7067 18.8667C14.7676 18.5225 14.691 18.1682 14.4933 17.88C14.2575 17.4424 13.9041 17.0795 13.4729 16.8321C13.0418 16.5847 12.5501 16.4628 12.0533 16.48C9.96786 17.069 8.1644 18.3896 6.97332 20.2C6.75332 20.8074 6.75332 21.4726 6.97332 22.08C7.15461 22.6588 7.4529 23.1942 7.8497 23.6529C8.2465 24.1116 8.73333 24.4839 9.27999 24.7467C9.78847 24.9868 10.3443 25.1098 10.9067 25.1067C11.5297 25.1024 12.1459 24.9756 12.72 24.7333C15.4309 23.6431 17.9036 22.0354 20 20C22.0448 17.9163 23.654 15.4459 24.7333 12.7333C24.9743 12.1542 25.1011 11.5339 25.1067 10.9067C25.1196 10.3662 25.0149 9.82939 24.8 9.33333V9.33333Z"/>
<path d="M25.6667 32H6.33333C4.65363 32 3.04272 31.3327 1.85499 30.145C0.66726 28.9573 0 27.3464 0 25.6667L0 6.33333C0 4.65363 0.66726 3.04272 1.85499 1.85499C3.04272 0.66726 4.65363 0 6.33333 0L25.6667 0C27.3464 0 28.9573 0.66726 30.145 1.85499C31.3327 3.04272 32 4.65363 32 6.33333V25.6667C32 27.3464 31.3327 28.9573 30.145 30.145C28.9573 31.3327 27.3464 32 25.6667 32V32ZM6.33333 3.01333C5.4539 3.01684 4.61148 3.36776 3.98962 3.98962C3.36776 4.61148 3.01684 5.4539 3.01333 6.33333V25.6667C3.01684 26.5461 3.36776 27.3885 3.98962 28.0104C4.61148 28.6322 5.4539 28.9832 6.33333 28.9867H25.6667C26.5461 28.9832 27.3885 28.6322 28.0104 28.0104C28.6322 27.3885 28.9832 26.5461 28.9867 25.6667V6.33333C28.9832 5.4539 28.6322 4.61148 28.0104 3.98962C27.3885 3.36776 26.5461 3.01684 25.6667 3.01333H6.33333Z"/>
</svg>
