<svg viewBox="0 0 32 32" xmlns="http://www.w3.org/2000/svg">
<path d="M29.5067 13.8533H18.16V2.48001C18.16 1.90714 17.9324 1.35774 17.5273 0.952657C17.1223 0.547578 16.5729 0.320007 16 0.320007C15.4271 0.320007 14.8777 0.547578 14.4726 0.952657C14.0676 1.35774 13.84 1.90714 13.84 2.48001V13.8533H2.49333C1.924 13.8533 1.37799 14.0795 0.975409 14.4821C0.57283 14.8847 0.346664 15.4307 0.346664 16C0.346664 16.5693 0.57283 17.1154 0.975409 17.5179C1.37799 17.9205 1.924 18.1467 2.49333 18.1467H13.84V29.52C13.84 30.0929 14.0676 30.6423 14.4726 31.0474C14.8777 31.4524 15.4271 31.68 16 31.68C16.5729 31.68 17.1223 31.4524 17.5273 31.0474C17.9324 30.6423 18.16 30.0929 18.16 29.52V18.1467H29.5067C30.076 18.1467 30.622 17.9205 31.0246 17.5179C31.4272 17.1154 31.6533 16.5693 31.6533 16C31.6533 15.4307 31.4272 14.8847 31.0246 14.4821C30.622 14.0795 30.076 13.8533 29.5067 13.8533V13.8533Z"/>
</svg>
