<svg viewBox="0 0 32 32" xmlns="http://www.w3.org/2000/svg">
<path d="M24.88 6.13334V26.4667C24.8434 26.8675 24.6584 27.2402 24.3611 27.5116C24.0638 27.783 23.6758 27.9335 23.2733 27.9335C22.8708 27.9335 22.4828 27.783 22.1856 27.5116C21.8883 27.2402 21.7032 26.8675 21.6667 26.4667V6.13334C21.7032 5.73248 21.8883 5.35977 22.1856 5.08838C22.4828 4.81699 22.8708 4.66652 23.2733 4.66652C23.6758 4.66652 24.0638 4.81699 24.3611 5.08838C24.6584 5.35977 24.8434 5.73248 24.88 6.13334V6.13334Z"/>
<path d="M31.64 20.32C31.641 20.5316 31.599 20.7412 31.5165 20.936C31.434 21.1308 31.3127 21.3069 31.16 21.4533L25.04 27.5733C24.8095 27.8056 24.5354 27.99 24.2333 28.1159C23.9312 28.2418 23.6072 28.3066 23.28 28.3067C22.9507 28.3069 22.6247 28.2422 22.3204 28.1164C22.0161 27.9906 21.7396 27.806 21.5067 27.5733L15.3867 21.4533C15.0861 21.1528 14.9172 20.7451 14.9172 20.32C14.9172 19.8949 15.0861 19.4872 15.3867 19.1867C15.6873 18.8861 16.0949 18.7172 16.52 18.7172C16.9451 18.7172 17.3528 18.8861 17.6533 19.1867L23.28 24.8133L28.8933 19.1867C29.1189 18.964 29.405 18.8127 29.716 18.7517C30.027 18.6906 30.3491 18.7226 30.6421 18.8435C30.9351 18.9643 31.186 19.1688 31.3634 19.4314C31.5409 19.694 31.6371 20.0031 31.64 20.32V20.32Z"/>
<path d="M12.0667 17.3333H1.58666C1.23304 17.3316 0.894604 17.1894 0.645806 16.9381C0.397008 16.6868 0.258228 16.347 0.259996 15.9933C0.261764 15.6397 0.403936 15.3013 0.655234 15.0525C0.906533 14.8037 1.24637 14.6649 1.6 14.6667V14.6667H12.08C12.2777 14.6129 12.4852 14.6055 12.6863 14.6449C12.8874 14.6844 13.0767 14.7696 13.2395 14.8941C13.4023 15.0185 13.5342 15.1788 13.625 15.3625C13.7158 15.5463 13.763 15.7484 13.763 15.9533C13.763 16.1582 13.7158 16.3604 13.625 16.5441C13.5342 16.7278 13.4023 16.8881 13.2395 17.0126C13.0767 17.137 12.8874 17.2223 12.6863 17.2617C12.4852 17.3012 12.2777 17.2937 12.08 17.24L12.0667 17.3333Z"/>
<path d="M12.08 10.8933H1.6C1.24637 10.8933 0.907235 10.7529 0.657187 10.5028C0.407138 10.2528 0.266663 9.91362 0.266663 9.56C0.266663 9.20638 0.407138 8.86724 0.657187 8.61719C0.907235 8.36714 1.24637 8.22667 1.6 8.22667V8.22667H12.08C12.4219 8.24379 12.7442 8.39179 12.98 8.64C13.2158 8.88822 13.3471 9.21763 13.3467 9.56C13.3471 9.90237 13.2158 10.2318 12.98 10.48C12.7442 10.7282 12.4219 10.8762 12.08 10.8933V10.8933Z"/>
<path d="M12 23.7067H1.53333C1.25638 23.6259 1.0131 23.4575 0.84 23.2267C0.666904 22.9959 0.573334 22.7152 0.573334 22.4267C0.573334 22.1382 0.666904 21.8575 0.84 21.6267C1.0131 21.3959 1.25638 21.2274 1.53333 21.1467V21.1467H12.0133C12.367 21.1467 12.7061 21.2871 12.9561 21.5372C13.2062 21.7872 13.3467 22.1264 13.3467 22.48C13.3196 22.8171 13.1655 23.1314 12.9155 23.3592C12.6654 23.5869 12.3382 23.7111 12 23.7067Z"/>
</svg>
