<svg viewBox="0 0 32 32" xmlns="http://www.w3.org/2000/svg">
<path d="M1.76 17.4267H4.6C4.97838 17.4267 5.34126 17.2764 5.60881 17.0088C5.87636 16.7412 6.02667 16.3784 6.02667 16C6.02667 15.6216 5.87636 15.2587 5.60881 14.9912C5.34126 14.7236 4.97838 14.5733 4.6 14.5733H1.76C1.38163 14.5733 1.01875 14.7236 0.751197 14.9912C0.483645 15.2587 0.333336 15.6216 0.333336 16C0.333336 16.3784 0.483645 16.7412 0.751197 17.0088C1.01875 17.2764 1.38163 17.4267 1.76 17.4267V17.4267ZM27.4 17.4267H30.24C30.6184 17.4267 30.9813 17.2764 31.2488 17.0088C31.5164 16.7412 31.6667 16.3784 31.6667 16C31.6667 15.6216 31.5164 15.2587 31.2488 14.9912C30.9813 14.7236 30.6184 14.5733 30.24 14.5733H27.4C27.0216 14.5733 26.6587 14.7236 26.3912 14.9912C26.1236 15.2587 25.9733 15.6216 25.9733 16C25.9733 16.3784 26.1236 16.7412 26.3912 17.0088C26.6587 17.2764 27.0216 17.4267 27.4 17.4267ZM14.5733 1.75999V4.59999C14.5733 4.97837 14.7236 5.34125 14.9912 5.6088C15.2587 5.87635 15.6216 6.02666 16 6.02666C16.3784 6.02666 16.7413 5.87635 17.0088 5.6088C17.2764 5.34125 17.4267 4.97837 17.4267 4.59999V1.75999C17.4267 1.38162 17.2764 1.01874 17.0088 0.751189C16.7413 0.483637 16.3784 0.333328 16 0.333328C15.6216 0.333328 15.2587 0.483637 14.9912 0.751189C14.7236 1.01874 14.5733 1.38162 14.5733 1.75999V1.75999ZM14.5733 27.4V30.24C14.5733 30.6184 14.7236 30.9812 14.9912 31.2488C15.2587 31.5163 15.6216 31.6667 16 31.6667C16.3784 31.6667 16.7413 31.5163 17.0088 31.2488C17.2764 30.9812 17.4267 30.6184 17.4267 30.24V27.4C17.4267 27.0216 17.2764 26.6587 17.0088 26.3912C16.7413 26.1236 16.3784 25.9733 16 25.9733C15.6216 25.9733 15.2587 26.1236 14.9912 26.3912C14.7236 26.6587 14.5733 27.0216 14.5733 27.4V27.4ZM7.44 5.42666C7.16769 5.18769 6.81465 5.06128 6.45254 5.07308C6.09043 5.08487 5.74637 5.234 5.49019 5.49018C5.234 5.74637 5.08488 6.09043 5.07308 6.45253C5.06129 6.81464 5.1877 7.16768 5.42667 7.43999L6.94667 8.94666C7.21189 9.21188 7.5716 9.36087 7.94667 9.36087C8.32174 9.36087 8.68145 9.21188 8.94667 8.94666C9.21189 8.68144 9.36088 8.32173 9.36088 7.94666C9.36088 7.57159 9.21189 7.21188 8.94667 6.94666L7.44 5.42666ZM25.0533 23.0533C24.7881 22.7881 24.4284 22.6391 24.0533 22.6391C23.6783 22.6391 23.3186 22.7881 23.0533 23.0533C22.7881 23.3185 22.6391 23.6783 22.6391 24.0533C22.6391 24.4284 22.7881 24.7881 23.0533 25.0533L24.56 26.5733C24.8323 26.8123 25.1854 26.9387 25.5475 26.9269C25.9096 26.9151 26.2536 26.766 26.5098 26.5098C26.766 26.2536 26.9151 25.9096 26.9269 25.5475C26.9387 25.1853 26.8123 24.8323 26.5733 24.56L25.0533 23.0533ZM26.5733 7.43999C26.8123 7.16768 26.9387 6.81464 26.9269 6.45253C26.9151 6.09043 26.766 5.74637 26.5098 5.49018C26.2536 5.234 25.9096 5.08487 25.5475 5.07308C25.1854 5.06128 24.8323 5.18769 24.56 5.42666L23.0533 6.94666C22.7881 7.21188 22.6391 7.57159 22.6391 7.94666C22.6391 8.32173 22.7881 8.68144 23.0533 8.94666C23.3186 9.21188 23.6783 9.36087 24.0533 9.36087C24.4284 9.36087 24.7881 9.21188 25.0533 8.94666L26.5733 7.43999ZM8.94667 25.0533C9.21189 24.7881 9.36088 24.4284 9.36088 24.0533C9.36088 23.6783 9.21189 23.3185 8.94667 23.0533C8.68145 22.7881 8.32174 22.6391 7.94667 22.6391C7.5716 22.6391 7.21189 22.7881 6.94667 23.0533L5.42667 24.56C5.1877 24.8323 5.06129 25.1853 5.07308 25.5475C5.08488 25.9096 5.234 26.2536 5.49019 26.5098C5.74637 26.766 6.09043 26.9151 6.45254 26.9269C6.81465 26.9387 7.16769 26.8123 7.44 26.5733L8.94667 25.0533Z"/>
<path d="M16 11.7333C16.8439 11.7333 17.6688 11.9836 18.3704 12.4524C19.0721 12.9212 19.619 13.5876 19.9419 14.3672C20.2648 15.1469 20.3493 16.0047 20.1847 16.8324C20.0201 17.66 19.6137 18.4203 19.017 19.017C18.4203 19.6137 17.66 20.0201 16.8324 20.1847C16.0047 20.3493 15.1468 20.2648 14.3672 19.9419C13.5876 19.619 12.9212 19.0721 12.4524 18.3704C11.9836 17.6688 11.7333 16.8439 11.7333 16C11.7333 14.8684 12.1829 13.7832 12.983 12.983C13.7832 12.1829 14.8684 11.7333 16 11.7333V11.7333ZM16 8.88C14.5918 8.88 13.2152 9.29759 12.0443 10.0799C10.8735 10.8623 9.96087 11.9743 9.42198 13.2753C8.88308 14.5763 8.74208 16.0079 9.01681 17.389C9.29154 18.7702 9.96965 20.0389 10.9654 21.0346C11.9611 22.0304 13.2298 22.7085 14.611 22.9832C15.9921 23.2579 17.4237 23.1169 18.7247 22.578C20.0257 22.0391 21.1377 21.1265 21.9201 19.9557C22.7024 18.7848 23.12 17.4082 23.12 16C23.12 14.1117 22.3699 12.3007 21.0346 10.9654C19.6993 9.63015 17.8883 8.88 16 8.88V8.88Z"/>
</svg>
