<svg viewBox="0 0 32 32" xmlns="http://www.w3.org/2000/svg">
<path d="M22.5467 12.3733H20.48C21.538 11.4594 22.2912 10.2438 22.6385 8.88958C22.9858 7.53535 22.9106 6.10728 22.4231 4.79699C21.9355 3.4867 21.0589 2.35687 19.9108 1.55908C18.7627 0.761288 17.3981 0.33371 16 0.33371C14.6019 0.33371 13.2373 0.761288 12.0892 1.55908C10.9411 2.35687 10.0645 3.4867 9.57693 4.79699C9.08937 6.10728 9.0142 7.53535 9.36152 8.88958C9.70883 10.2438 10.462 11.4594 11.52 12.3733H9.45334C8.31467 12.3733 7.22265 12.8257 6.41749 13.6308C5.61234 14.436 5.16 15.528 5.16 16.6667V27.3333C5.16 28.472 5.61234 29.564 6.41749 30.3692C7.22265 31.1744 8.31467 31.6267 9.45334 31.6267H22.5467C23.6853 31.6267 24.7774 31.1744 25.5825 30.3692C26.3877 29.564 26.84 28.472 26.84 27.3333V16.6667C26.84 15.528 26.3877 14.436 25.5825 13.6308C24.7774 12.8257 23.6853 12.3733 22.5467 12.3733ZM16 2.93335C16.8444 2.93335 17.6699 3.18393 18.3718 3.65335C19.0738 4.12277 19.6206 4.78992 19.9432 5.57033C20.2657 6.35074 20.3494 7.2093 20.1837 8.03732C20.018 8.86533 19.6103 9.62555 19.0122 10.2217C18.4142 10.8179 17.6527 11.2232 16.8242 11.3863C15.9957 11.5494 15.1374 11.463 14.358 11.1381C13.5786 10.8131 12.9131 10.2641 12.4459 9.56074C11.9787 8.85734 11.7307 8.03111 11.7333 7.18668C11.7369 6.0574 12.1879 4.97558 12.9877 4.17831C13.7875 3.38104 14.8707 2.93334 16 2.93335V2.93335ZM24.24 27.3734C24.24 27.8225 24.0616 28.2532 23.744 28.5707C23.4265 28.8883 22.9958 29.0667 22.5467 29.0667H9.45334C9.00424 29.0667 8.57353 28.8883 8.25597 28.5707C7.93841 28.2532 7.76 27.8225 7.76 27.3734V16.7067C7.76 16.2576 7.93841 15.8269 8.25597 15.5093C8.57353 15.1918 9.00424 15.0134 9.45334 15.0134H22.5467C22.9958 15.0134 23.4265 15.1918 23.744 15.5093C24.0616 15.8269 24.24 16.2576 24.24 16.7067V27.3734Z"/>
</svg>
