<svg viewBox="0 0 32 32" xmlns="http://www.w3.org/2000/svg">
<path d="M21.12 7.32001V24.6533C21.12 25.159 20.9191 25.644 20.5615 26.0016C20.204 26.3591 19.719 26.56 19.2133 26.56H5.79998C5.2943 26.56 4.80933 26.3591 4.45176 26.0016C4.09419 25.644 3.89331 25.159 3.89331 24.6533V7.32001C3.89331 7.06962 3.94263 6.82168 4.03845 6.59036C4.13427 6.35903 4.27471 6.14884 4.45176 5.97179C4.62881 5.79474 4.839 5.65429 5.07033 5.55848C5.30166 5.46266 5.54959 5.41334 5.79998 5.41334H19.2133C19.4637 5.41334 19.7116 5.46266 19.943 5.55848C20.1743 5.65429 20.3845 5.79474 20.5615 5.97179C20.7386 6.14884 20.879 6.35903 20.9748 6.59036C21.0707 6.82168 21.12 7.06962 21.12 7.32001V7.32001ZM18.8133 1.60001H6.19998C4.64513 1.60353 3.15496 2.22275 2.05551 3.3222C0.956059 4.42165 0.336835 5.91182 0.333313 7.46667V24.5333C0.336835 26.0882 0.956059 27.5784 2.05551 28.6778C3.15496 29.7773 4.64513 30.3965 6.19998 30.4H18.8133C20.3682 30.3965 21.8583 29.7773 22.9578 28.6778C24.0572 27.5784 24.6765 26.0882 24.68 24.5333V19.6L28.28 23.2C28.5537 23.4724 28.9008 23.6591 29.279 23.7373C29.6571 23.8156 30.0499 23.7819 30.4092 23.6404C30.7685 23.499 31.0788 23.2559 31.3021 22.9408C31.5254 22.6258 31.6521 22.2525 31.6666 21.8667V10.2C31.6648 9.80847 31.5472 9.42622 31.3288 9.10126C31.1104 8.77631 30.8008 8.52314 30.439 8.37356C30.0771 8.22398 29.6791 8.18466 29.295 8.26053C28.9109 8.3364 28.5578 8.52408 28.28 8.80001L24.68 12.4V7.46667C24.6765 5.91182 24.0572 4.42165 22.9578 3.3222C21.8583 2.22275 20.3682 1.60353 18.8133 1.60001V1.60001Z"/>
</svg>
