<svg viewBox="0 0 32 32" xmlns="http://www.w3.org/2000/svg">
<path d="M25.6667 32H6.33333C4.65363 32 3.04272 31.3327 1.85499 30.145C0.66726 28.9573 0 27.3464 0 25.6667L0 6.33333C0 4.65363 0.66726 3.04272 1.85499 1.85499C3.04272 0.66726 4.65363 0 6.33333 0L25.6667 0C27.3464 0 28.9573 0.66726 30.145 1.85499C31.3327 3.04272 32 4.65363 32 6.33333V25.6667C32 27.3464 31.3327 28.9573 30.145 30.145C28.9573 31.3327 27.3464 32 25.6667 32V32ZM6.33333 3.01333C5.4539 3.01684 4.61148 3.36776 3.98962 3.98962C3.36776 4.61148 3.01684 5.4539 3.01333 6.33333V25.6667C3.01684 26.5461 3.36776 27.3885 3.98962 28.0104C4.61148 28.6322 5.4539 28.9832 6.33333 28.9867H25.6667C26.5461 28.9832 27.3885 28.6322 28.0104 28.0104C28.6322 27.3885 28.9832 26.5461 28.9867 25.6667V6.33333C28.9832 5.4539 28.6322 4.61148 28.0104 3.98962C27.3885 3.36776 26.5461 3.01684 25.6667 3.01333H6.33333Z"/>
<path d="M21.3333 20.88H14.12L22.7467 13.12C22.9203 12.965 23.0427 12.7607 23.0974 12.5345C23.1522 12.3082 23.1368 12.0706 23.0533 11.8533L21.2267 7.10667C21.1466 6.88906 21.0011 6.70165 20.81 6.5703C20.6189 6.43895 20.3918 6.37013 20.16 6.37334H8.69333L9.70666 8.74667L10.6667 11.12H17.84L9.25333 18.88C9.0835 19.0377 8.9648 19.2426 8.91252 19.4684C8.86024 19.6941 8.87677 19.9304 8.96 20.1467L10.7733 24.8933C10.8558 25.112 11.0038 25.2998 11.1971 25.4311C11.3905 25.5624 11.6197 25.6307 11.8533 25.6267H23.3067L21.3333 20.88Z"/>
</svg>
