<svg viewBox="0 0 32 32" xmlns="http://www.w3.org/2000/svg">
<path d="M22.4667 7.29332C22.113 7.29332 21.7739 7.4338 21.5239 7.68385C21.2738 7.9339 21.1333 8.27304 21.1333 8.62666V23.4667C21.1382 24.806 20.6389 26.0981 19.7348 27.0863C18.8306 28.0744 17.5878 28.6862 16.2533 28.8C15.544 28.849 14.8321 28.7528 14.1612 28.5172C13.4903 28.2816 12.8745 27.9116 12.3516 27.4299C11.8286 26.9481 11.4094 26.3647 11.1197 25.7153C10.83 25.066 10.6759 24.3643 10.6667 23.6533V6.39999C10.6536 5.60316 10.9347 4.82948 11.4561 4.22684C11.9776 3.6242 12.7029 3.23488 13.4933 3.13332C13.9287 3.09051 14.3682 3.13934 14.7836 3.27667C15.199 3.414 15.581 3.63679 15.905 3.93069C16.2291 4.2246 16.488 4.58311 16.6651 4.98313C16.8422 5.38316 16.9336 5.81584 16.9333 6.25332V20.7867C16.9458 21.044 16.8671 21.2974 16.711 21.5023C16.5548 21.7072 16.3314 21.8504 16.08 21.9067C15.9289 21.936 15.773 21.9296 15.6249 21.8879C15.4767 21.8462 15.3403 21.7704 15.2267 21.6667C15.1099 21.5715 15.0158 21.4516 14.9512 21.3155C14.8866 21.1794 14.8532 21.0306 14.8533 20.88V8.69332C14.8533 8.31495 14.703 7.95207 14.4355 7.68452C14.1679 7.41697 13.805 7.26666 13.4267 7.26666C13.0483 7.26666 12.6854 7.41697 12.4179 7.68452C12.1503 7.95207 12 8.31495 12 8.69332V20.6933C11.9909 21.6659 12.3365 22.6085 12.9721 23.3448C13.6077 24.081 14.4898 24.5604 15.4533 24.6933C15.9856 24.7519 16.5242 24.6953 17.0326 24.5273C17.541 24.3594 18.0074 24.0841 18.4 23.72C18.7947 23.3625 19.1102 22.9262 19.326 22.4394C19.5419 21.9525 19.6534 21.4259 19.6533 20.8933V6.43999C19.6761 4.91842 19.1225 3.44456 18.1035 2.31432C17.0846 1.18409 15.6758 0.481154 14.16 0.346657C13.3503 0.287995 12.5372 0.398798 11.7728 0.671992C11.0083 0.945186 10.3091 1.37477 9.72 1.93332C9.13192 2.48899 8.66315 3.15858 8.34223 3.90128C8.0213 4.64399 7.85496 5.44425 7.85333 6.25332V23.4133C7.83088 25.5405 8.63867 27.5926 10.1051 29.1337C11.5715 30.6748 13.581 31.5835 15.7067 31.6667H15.8533C17.9751 31.6667 20.0099 30.8238 21.5102 29.3235C23.0105 27.8232 23.8533 25.7884 23.8533 23.6667V8.69332C23.8628 8.50812 23.8335 8.32299 23.7673 8.14975C23.7011 7.97651 23.5995 7.81899 23.469 7.68723C23.3385 7.55548 23.182 7.4524 23.0094 7.38457C22.8368 7.31674 22.6519 7.28567 22.4667 7.29332V7.29332Z"/>
</svg>
