<svg viewBox="0 0 32 32" xmlns="http://www.w3.org/2000/svg">
<path d="M16 31.6667C12.9014 31.6667 9.87242 30.7478 7.29605 29.0263C4.71968 27.3049 2.71165 24.8581 1.52587 21.9954C0.340101 19.1327 0.0298489 15.9826 0.634351 12.9436C1.23885 9.90454 2.73096 7.113 4.92198 4.92198C7.113 2.73096 9.90454 1.23885 12.9436 0.634351C15.9826 0.0298489 19.1327 0.340101 21.9954 1.52587C24.8581 2.71165 27.3049 4.71968 29.0263 7.29605C30.7478 9.87242 31.6667 12.9014 31.6667 16C31.6631 20.154 30.0114 24.1368 27.0741 27.0741C24.1368 30.0114 20.154 31.6631 16 31.6667V31.6667ZM16 3.18665C13.4657 3.18665 10.9884 3.93814 8.88128 5.34609C6.77414 6.75404 5.13182 8.75521 4.16201 11.0965C3.1922 13.4379 2.93845 16.0142 3.43286 18.4997C3.92726 20.9853 5.14761 23.2684 6.93959 25.0604C8.73157 26.8524 11.0147 28.0727 13.5002 28.5671C15.9858 29.0615 18.5621 28.8078 20.9034 27.838C23.2448 26.8682 25.2459 25.2258 26.6539 23.1187C28.0618 21.0115 28.8133 18.5342 28.8133 16C28.8098 12.6028 27.4587 9.34569 25.0565 6.94349C22.6543 4.54129 19.3972 3.19018 16 3.18665V3.18665Z"/>
<path d="M23.7067 14.6667C23.4296 14.3931 23.056 14.2397 22.6666 14.2397C22.2773 14.2397 21.9037 14.3931 21.6266 14.6667L17.4666 18.6667V9.40002C17.4666 9.01103 17.3121 8.63798 17.0371 8.36293C16.762 8.08787 16.389 7.93335 16 7.93335C15.611 7.93335 15.2379 8.08787 14.9629 8.36293C14.6878 8.63798 14.5333 9.01103 14.5333 9.40002V18.5333L10.4266 14.6667C10.2983 14.5004 10.1358 14.3635 9.95004 14.2655C9.76428 14.1674 9.55961 14.1104 9.3499 14.0983C9.14019 14.0862 8.93033 14.1193 8.73451 14.1953C8.5387 14.2713 8.3615 14.3885 8.2149 14.539C8.06831 14.6894 7.95574 14.8696 7.88482 15.0674C7.8139 15.2651 7.78628 15.4757 7.80383 15.6851C7.82138 15.8944 7.88369 16.0975 7.98654 16.2807C8.08939 16.4638 8.23039 16.6227 8.39998 16.7467L14.9866 23.0267C15.0808 23.1013 15.1838 23.164 15.2933 23.2133C15.3412 23.2564 15.3951 23.2924 15.4533 23.32C15.6275 23.3886 15.8128 23.4248 16 23.4267C16.1914 23.4236 16.3808 23.3875 16.56 23.32C16.7112 23.2679 16.8482 23.1811 16.96 23.0667L23.6266 16.7867C23.7751 16.6552 23.8954 16.4951 23.9802 16.3158C24.0651 16.1365 24.1126 15.942 24.1201 15.7438C24.1276 15.5456 24.0948 15.348 24.0237 15.1629C23.9527 14.9777 23.8448 14.8089 23.7067 14.6667V14.6667Z"/>
</svg>
