<svg viewBox="0 0 32 32" xmlns="http://www.w3.org/2000/svg">
<path d="M31.6933 13.4933V13.5733C31.682 14.0568 31.5749 14.5332 31.378 14.975C31.1812 15.4167 30.8986 15.815 30.5467 16.1467L29.7467 16.9067C29.6183 17.029 29.5156 17.1758 29.4446 17.3383C29.3736 17.5009 29.3358 17.676 29.3333 17.8533V19.8C29.3228 20.9931 28.8424 22.1339 27.9962 22.975C27.1501 23.8162 26.0064 24.2899 24.8133 24.2933H12.1733C10.9803 24.2863 9.83802 23.8093 8.99437 22.9656C8.15072 22.122 7.67367 20.9797 7.66667 19.7867V19.7867V7.32C7.66311 6.72255 7.77838 6.13036 8.00578 5.57787C8.23317 5.02538 8.56816 4.52362 8.99124 4.10178C9.41433 3.67994 9.91707 3.34643 10.4702 3.12065C11.0234 2.89488 11.6159 2.78135 12.2133 2.78666H24.8667C25.4585 2.79189 26.0435 2.91365 26.5883 3.14497C27.1331 3.3763 27.6269 3.71267 28.0417 4.13487C28.4565 4.55707 28.784 5.05684 29.0056 5.60563C29.2273 6.15442 29.3386 6.7415 29.3333 7.33333V9.05333C29.3311 9.39478 29.46 9.72407 29.6933 9.97333L30.6267 10.9467C31.3017 11.6233 31.6846 12.5376 31.6933 13.4933V13.4933ZM9.81333 19.76C9.81684 20.3848 10.0666 20.9831 10.5084 21.4249C10.9503 21.8667 11.5485 22.1165 12.1733 22.12H24.8133C25.4405 22.12 26.0421 21.8718 26.4868 21.4296C26.9315 20.9874 27.1831 20.3871 27.1867 19.76V17.8533C27.1915 17.3848 27.2894 16.9218 27.4749 16.4915C27.6603 16.0612 27.9294 15.672 28.2667 15.3467L29.0667 14.5867C29.2149 14.4508 29.334 14.2862 29.4165 14.1028C29.499 13.9194 29.5433 13.7211 29.5467 13.52C29.5487 13.1185 29.3959 12.7317 29.12 12.44L28.1867 11.4667C27.5563 10.8223 27.2064 9.95474 27.2133 9.05333V7.32C27.2133 6.69408 26.9647 6.09381 26.5221 5.65122C26.0795 5.20864 25.4792 4.96 24.8533 4.96H12.2133C11.9052 4.95647 11.5993 5.01369 11.3133 5.12838C11.0272 5.24307 10.7665 5.41298 10.5461 5.62842C10.3257 5.84385 10.15 6.10059 10.0288 6.38397C9.90764 6.66735 9.84348 6.97182 9.84 7.28V19.7467L9.81333 19.76Z"/>
<path d="M24.08 14.4133H12.9333C12.8114 14.4286 12.6876 14.4177 12.5703 14.3814C12.4529 14.3451 12.3445 14.2843 12.2524 14.203C12.1603 14.1217 12.0865 14.0217 12.036 13.9097C11.9855 13.7977 11.9594 13.6762 11.9594 13.5533C11.9594 13.4305 11.9855 13.309 12.036 13.197C12.0865 13.085 12.1603 12.985 12.2524 12.9037C12.3445 12.8224 12.4529 12.7615 12.5703 12.7253C12.6876 12.689 12.8114 12.6781 12.9333 12.6933V12.6933H24.0933C24.2153 12.6781 24.339 12.689 24.4564 12.7253C24.5738 12.7615 24.6822 12.8224 24.7743 12.9037C24.8664 12.985 24.9401 13.085 24.9906 13.197C25.0412 13.309 25.0673 13.4305 25.0673 13.5533C25.0673 13.6762 25.0412 13.7977 24.9906 13.9097C24.9401 14.0217 24.8664 14.1217 24.7743 14.203C24.6822 14.2843 24.5738 14.3451 24.4564 14.3814C24.339 14.4177 24.2153 14.4286 24.0933 14.4133H24.08Z"/>
<path d="M24.0933 10.12H12.9333C12.7237 10.0938 12.5308 9.992 12.391 9.83363C12.2511 9.67526 12.174 9.47127 12.174 9.25999C12.174 9.04872 12.2511 8.84472 12.391 8.68635C12.5308 8.52798 12.7237 8.42615 12.9333 8.39999V8.39999H24.08C24.2896 8.42615 24.4825 8.52798 24.6224 8.68635C24.7622 8.84472 24.8394 9.04872 24.8394 9.25999C24.8394 9.47127 24.7622 9.67526 24.6224 9.83363C24.4825 9.992 24.2896 10.0938 24.08 10.12H24.0933Z"/>
<path d="M24.08 18.6667H12.92C12.6937 18.6667 12.4766 18.5768 12.3166 18.4167C12.1566 18.2567 12.0667 18.0396 12.0667 17.8133C12.0667 17.587 12.1566 17.37 12.3166 17.2099C12.4766 17.0499 12.6937 16.96 12.92 16.96V16.96H24.08C24.3063 16.96 24.5234 17.0499 24.6834 17.2099C24.8434 17.37 24.9333 17.587 24.9333 17.8133C24.9333 18.0396 24.8434 18.2567 24.6834 18.4167C24.5234 18.5768 24.3063 18.6667 24.08 18.6667V18.6667Z"/>
<path d="M24.3467 24.7067C24.3476 25.2978 24.2301 25.8832 24.0011 26.4282C23.7721 26.9732 23.4362 27.4669 23.0133 27.88C22.5953 28.3037 22.097 28.6398 21.5475 28.8687C20.9981 29.0977 20.4085 29.2148 19.8133 29.2133H7.17333C6.5775 29.2116 5.98789 29.0921 5.43842 28.8616C4.88894 28.6312 4.39045 28.2944 3.97162 27.8706C3.55279 27.4468 3.22187 26.9444 2.99792 26.3923C2.77397 25.8401 2.66139 25.2491 2.66666 24.6533V22.92C2.6619 22.5813 2.52842 22.2572 2.29333 22.0133L1.33333 21.04C0.671774 20.3577 0.303307 19.4437 0.306663 18.4933V18.4133C0.314007 17.9304 0.418086 17.4539 0.612746 17.0119C0.807407 16.5699 1.0887 16.1714 1.44 15.84L2.24 15.08C2.37242 14.9572 2.47852 14.8088 2.55186 14.6438C2.62521 14.4788 2.66426 14.3006 2.66666 14.12V12.1867C2.66575 11.5955 2.78326 11.0101 3.01226 10.4651C3.24126 9.92007 3.57711 9.42644 4 9.01332C4.41807 8.58965 4.91637 8.25352 5.4658 8.02459C6.01524 7.79566 6.60478 7.67851 7.2 7.67999V9.83999C6.88985 9.83757 6.58239 9.89772 6.29603 10.0169C6.00966 10.136 5.75025 10.3116 5.53333 10.5333C5.31204 10.7478 5.1365 11.0048 5.01734 11.289C4.89817 11.5732 4.83784 11.8785 4.84 12.1867V14.1333C4.83949 14.6006 4.74342 15.0628 4.55769 15.4916C4.37197 15.9204 4.1005 16.3067 3.76 16.6267L2.96 17.4C2.81352 17.5365 2.69654 17.7016 2.61629 17.885C2.53603 18.0685 2.49418 18.2664 2.49333 18.4667C2.48558 18.6664 2.51951 18.8656 2.59297 19.0516C2.66643 19.2375 2.7778 19.4061 2.92 19.5467L3.84 20.5067C4.15675 20.8258 4.40706 21.2046 4.57642 21.6212C4.74578 22.0377 4.83084 22.4837 4.82666 22.9333V24.6533C4.82665 25.2805 5.07487 25.8821 5.51708 26.3268C5.95928 26.7715 6.55953 27.0231 7.18666 27.0267H19.84C20.1501 27.0291 20.4576 26.9689 20.744 26.8498C21.0303 26.7307 21.2897 26.555 21.5067 26.3333C21.728 26.1189 21.9035 25.8618 22.0227 25.5777C22.1418 25.2935 22.2022 24.9881 22.2 24.68L24.3467 24.7067Z"/>
</svg>
