<svg viewBox="0 0 32 32" xmlns="http://www.w3.org/2000/svg">
<path d="M16 31.6667C15.3494 31.6537 14.7078 31.5115 14.1126 31.2483C13.5175 30.985 12.9806 30.606 12.5334 30.1333L11.52 29.0667C11.3479 28.888 11.1405 28.7471 10.9109 28.6529C10.6814 28.5588 10.4347 28.5135 10.1867 28.52H6.76002C5.96917 28.5193 5.18626 28.3623 4.45632 28.0579C3.72637 27.7536 3.06379 27.308 2.50669 26.7467C1.94055 26.1855 1.49301 25.5163 1.19066 24.7787C0.88831 24.0412 0.737328 23.2504 0.746687 22.4533V6.35999C0.746679 5.56631 0.903443 4.78044 1.20798 4.04751C1.51251 3.31458 1.95882 2.64902 2.52127 2.08904C3.08373 1.52906 3.75125 1.0857 4.48552 0.784403C5.21979 0.483107 6.00635 0.329814 6.80002 0.333326V0.333326H25.2C25.9932 0.331517 26.7789 0.487354 27.5113 0.791781C28.2438 1.09621 28.9084 1.54316 29.4667 2.10666C30.5971 3.24392 31.23 4.7832 31.2267 6.38666V22.48C31.2196 24.0808 30.5788 25.6137 29.4443 26.7431C28.3098 27.8726 26.7742 28.5067 25.1734 28.5067H22C21.5366 28.5083 21.092 28.69 20.76 29.0133L19.4267 30.2533C18.5148 31.1568 17.2837 31.6646 16 31.6667V31.6667ZM6.81335 3.21333C6.40058 3.20894 5.99108 3.28686 5.60876 3.44253C5.22644 3.59821 4.87899 3.82851 4.58669 4.11999C4.29119 4.41344 4.0566 4.76241 3.89643 5.14683C3.73625 5.53125 3.65365 5.94354 3.65335 6.35999V22.4533C3.64982 22.8699 3.72904 23.2831 3.88643 23.6688C4.04382 24.0545 4.27624 24.4052 4.5702 24.7004C4.86416 24.9956 5.21382 25.2295 5.59888 25.3885C5.98395 25.5475 6.39675 25.6284 6.81335 25.6267H10.2134C10.8392 25.63 11.4581 25.7592 12.033 26.0066C12.608 26.254 13.1273 26.6145 13.56 27.0667L14.5867 28.1467C14.768 28.3444 14.9885 28.5022 15.2341 28.6101C15.4797 28.718 15.7451 28.7736 16.0134 28.7733C16.2818 28.7809 16.549 28.7341 16.7987 28.6355C17.0485 28.537 17.2758 28.3888 17.4667 28.2L18.8 26.96C19.6635 26.108 20.827 25.6292 22.04 25.6267H25.2134C26.0527 25.6231 26.8564 25.2872 27.4486 24.6925C28.0409 24.0978 28.3734 23.2926 28.3734 22.4533V6.35999C28.3751 5.94502 28.2951 5.53375 28.1379 5.14969C27.9807 4.76563 27.7494 4.41629 27.4572 4.12162C27.1651 3.82695 26.8177 3.59272 26.435 3.4323C26.0522 3.27187 25.6417 3.18841 25.2267 3.18666H6.82669L6.81335 3.21333Z"/>
<path d="M23.4667 15.6133H8.52002C8.2159 15.6133 7.92424 15.4925 7.7092 15.2775C7.49416 15.0624 7.37335 14.7708 7.37335 14.4667C7.37335 14.1626 7.49416 13.8709 7.7092 13.6559C7.92424 13.4408 8.2159 13.32 8.52002 13.32V13.32L23.4667 13.3333C23.7708 13.3333 24.0625 13.4542 24.2775 13.6692C24.4925 13.8842 24.6134 14.1759 24.6134 14.48C24.6134 14.7841 24.4925 15.0758 24.2775 15.2908C24.0625 15.5059 23.7708 15.6267 23.4667 15.6267V15.6133Z"/>
<path d="M23.48 9.86667H8.53332C8.22921 9.86667 7.93755 9.74586 7.72251 9.53082C7.50747 9.31577 7.38666 9.02412 7.38666 8.72C7.38666 8.41589 7.50747 8.12423 7.72251 7.90918C7.93755 7.69414 8.22921 7.57333 8.53332 7.57333V7.57333H23.48C23.7645 7.60397 24.0276 7.73868 24.2188 7.95157C24.41 8.16447 24.5158 8.44052 24.5158 8.72667C24.5158 9.01282 24.41 9.28887 24.2188 9.50176C24.0276 9.71466 23.7645 9.84937 23.48 9.88V9.86667Z"/>
<path d="M23.4534 21.3333H8.5067C8.2222 21.3027 7.95905 21.168 7.76785 20.9551C7.57665 20.7422 7.47089 20.4662 7.47089 20.18C7.47089 19.8939 7.57665 19.6178 7.76785 19.4049C7.95905 19.192 8.2222 19.0573 8.5067 19.0267V19.0267H23.4534C23.7575 19.0267 24.0491 19.1475 24.2642 19.3625C24.4792 19.5776 24.6 19.8692 24.6 20.1733C24.6 20.4775 24.4792 20.7691 24.2642 20.9842C24.0491 21.1992 23.7575 21.32 23.4534 21.32V21.3333Z"/>
</svg>
